<svg id="Capa_1" enable-background="new 0 0 512 512" height="512" viewBox="0 0 512 512" width="512" xmlns="http://www.w3.org/2000/svg"><g><path d="m360.883 84.177c-.674-5.479-4.307-10.151-9.448-12.144-5.127-1.992-10.972-1.025-15.161 2.563-.85.718-84.961 72.231-136.084 97.529l169.482 59.517c5.507-29.325-7.31-135.468-8.789-147.465z" fill="#ff5e95"/><path d="m115.726 74.597c-4.189-3.589-10.02-4.556-15.161-2.563s-8.774 6.665-9.448 12.144c-1.494 12.041-14.341 118.491-8.76 147.642l165.103-61.92c-51.49-27.085-130.928-94.629-131.734-95.303z" fill="#ff7cb9"/><path d="m230.467 204.133c-58.813-18.354-208.1-81.489-209.594-82.119-4.995-2.109-10.723-1.392-15.044 1.919-4.292 3.325-6.46 8.701-5.669 14.077 1.011 6.797 26.444 167.007 96.845 219.8 34.805 26.118 66.24 36.416 93.047 36.416 31.934 0 57.319-14.604 74.048-34.497z" fill="#ff9ac9"/><path d="m445.17 123.933c-4.307-3.311-10.02-4.028-15.059-1.919-1.509.645-152.622 64.98-210.22 82.617l15.615 142.148c23.965 19.043 47.241 28.608 69.507 28.608 88.271 0 133.131-151.341 145.825-237.378.792-5.375-1.376-10.751-5.668-14.076z" fill="#ff7cb9"/><path d="m238.246 67.141c-2.813-3.97-7.529-5.955-12.246-5.955s-9.434 1.985-12.246 5.955c-3.78 5.362-92.754 132.056-92.754 218.672 0 99.536 54.243 135 105 135s105-35.464 105-135c0-86.616-88.975-213.31-92.754-218.672z" fill="#ffb6fa"/><path d="m331 285.813c0-86.616-88.975-213.311-92.754-218.672-2.813-3.97-7.529-5.955-12.246-5.955v359.626c50.757.001 105-35.463 105-134.999z" fill="#ff9ac9"/><path d="m396.361 240.813c-14.502 0-28.286 2.593-40.987 7.69-24.975 10.049-42.685 17.065-74.941 20.288-24.771 2.461-45.82 19.043-53.643 42.217-1.553 4.585-.791 9.624 2.021 13.55s7.354 6.255 12.188 6.255h87.305c6.359 0 12.028 4.01 14.145 10.009 2.117 5.997.227 12.684-4.726 16.674-25.585 20.604-64.517 33.293-96.723 33.317-5.048 0-10.005-.229-15-.37-64.948-1.844-124.585-15.033-154.51-27.506-21.533-8.906-48.065-4.775-66.054 10.122-3.706 3.076-5.713 7.734-5.405 12.554.322 4.805 2.93 9.155 7.002 11.719 48.993 30.681 134.147 50.87 218.967 53.051 5.004.128 9.999.43 15 .43 108.545 0 218.69-32.212 266.43-78.34 2.915-2.827 4.57-6.709 4.57-10.781v-6.24c0-63.208-52.431-114.639-115.639-114.639z" fill="#fde4e4"/><path d="m507.429 372.473c2.915-2.827 4.57-6.709 4.57-10.781v-6.24c0-63.208-52.431-114.639-115.639-114.639-14.502 0-28.286 2.593-40.987 7.69-24.975 10.049-42.685 17.065-74.941 20.288-24.771 2.461-45.82 19.043-53.643 42.217-1.553 4.585-.791 9.624 2.021 13.55s7.354 6.255 12.188 6.255h87.305c6.359 0 12.028 4.01 14.145 10.009 2.117 5.997.227 12.684-4.726 16.674-25.584 20.604-64.516 33.293-96.722 33.317-5.048 0-10.005-.229-15-.37v59.94c5.004.128 9.999.43 15 .43 108.545 0 218.69-32.212 266.429-78.34z" fill="#fcced3"/></g></svg>