<svg id="Capa_1" enable-background="new 0 0 512 512" height="512" viewBox="0 0 512 512" width="512" xmlns="http://www.w3.org/2000/svg"><g><g><path clip-rule="evenodd" d="m73.75 249.255c-26.844 0-48.812 21.948-48.812 48.731 0 26.756 21.883 48.647 48.642 48.731h.17 109.812c-16.923-8.457-30.699-24.267-38.635-46.412 1.502-.82 3.033-1.584 4.535-2.319 27.836-13.406 55.501-11.426 76.619 3.479-.879-18.101 5.641-36.344 19.559-52.21z" fill="#99ebfa" fill-rule="evenodd"/></g><g><path clip-rule="evenodd" d="m10 224.903c0 13.406 10.97 24.352 24.406 24.352h39.344 171.89c3.09-3.507 6.548-6.901 10.346-10.182 3.827 3.281 7.285 6.675 10.346 10.182h162.422c13.408 0 24.406 10.974 24.406 24.38 0 13.378-10.998 24.352-24.406 24.352h-66.244c1.531.735 3.033 1.499 4.564 2.319-7.965 22.146-21.713 37.956-38.664 46.412h100.345c40.194 0 73.132-32.78 73.246-72.885v-.198-.198c-.113-40.105-33.051-72.885-73.246-72.885h-345.509-48.84c-13.436-.001-24.406 10.945-24.406 24.351z" fill="#99ebfa" fill-rule="evenodd"/></g><g><path clip-rule="evenodd" d="m83.246 54.385c-40.28 0-73.246 32.893-73.246 73.083s32.966 73.083 73.246 73.083h345.508 9.467c26.872 0 48.84-21.919 48.84-48.731 0-26.784-21.968-48.703-48.84-48.703h39.344c13.408 0 24.349-10.917 24.434-24.267v-.113-.113c-.085-13.35-11.027-24.238-24.434-24.238h-394.319z" fill="#ff7b79" fill-rule="evenodd"/></g><g><path clip-rule="evenodd" d="m10 346.717v110.897h63.296v-47.77h365.407v47.77h63.297v-110.897h-73.246-100.344-61.539-21.77-61.539-109.812c-.028 0-.085 0-.113 0s-.028 0-.057 0z" fill="#ffcd69" fill-rule="evenodd"/></g><g><path clip-rule="evenodd" d="m285.919 301.465c-.737 15.725-7.086 31.366-19.048 45.253h61.539c16.951-8.457 30.699-24.267 38.664-46.412-1.531-.82-3.033-1.584-4.564-2.319-27.808-13.407-55.502-11.427-76.591 3.478z" fill="#ffbdbc" fill-rule="evenodd"/></g><g><path clip-rule="evenodd" d="m245.64 249.255c-13.918 15.867-20.437 34.109-19.587 52.21.765 15.754 7.115 31.366 19.048 45.253h21.77c11.962-13.887 18.311-29.527 19.048-45.253.85-18.101-5.669-36.344-19.587-52.21-3.061-3.507-6.52-6.901-10.346-10.182-3.799 3.281-7.257 6.674-10.346 10.182z" fill="#ff7b79" fill-rule="evenodd"/></g><g><path clip-rule="evenodd" d="m144.927 300.305c7.937 22.146 21.713 37.956 38.635 46.412h61.539c-11.934-13.887-18.283-29.499-19.02-45.253-21.118-14.905-48.783-16.885-76.619-3.479-1.502.736-3.033 1.5-4.535 2.32z" fill="#ffbdbc" fill-rule="evenodd"/></g><g><path clip-rule="evenodd" d="m266.332 249.255c13.918 15.867 20.437 34.109 19.587 52.21 21.089-14.905 48.783-16.885 76.591-3.479h66.244c13.408 0 24.406-10.974 24.406-24.352 0-13.406-10.998-24.38-24.406-24.38h-162.422z" fill="#99ebfa" fill-rule="evenodd"/></g><g><path d="m512 273.634c0-30.942-17.048-57.968-42.249-72.265 16.401-10.435 27.31-28.739 27.31-49.549 0-14.959-5.638-28.63-14.904-39.007 16.824-2.249 29.843-16.673 29.843-34.076 0-18.941-15.447-34.352-34.435-34.352h-394.319c-45.902 0-83.246 37.271-83.246 83.083 0 25.409 11.5 48.177 29.564 63.43-16.686 2.358-29.564 16.705-29.564 34.005 0 17.397 13.02 31.815 29.841 34.05-9.265 10.384-14.903 24.064-14.903 39.033 0 14.83 5.544 28.384 14.656 38.731h-19.594c-5.523 0-10 4.477-10 10v110.897c0 5.523 4.477 10 10 10h63.296c5.523 0 10-4.477 10-10v-37.77h127.79c5.523 0 10-4.477 10-10s-4.477-10-10-10h-137.79c-5.523 0-10 4.477-10 10v37.77h-43.296v-90.897h472v90.897h-43.297v-37.77c0-5.523-4.478-10-10-10h-137.817c-5.522 0-10 4.477-10 10s4.478 10 10 10h127.817v37.77c0 5.523 4.478 10 10 10h63.297c5.522 0 10-4.477 10-10v-110.897c0-5.523-4.478-10-10-10h-19.163c17.831-15.249 29.163-37.863 29.163-63.083zm-492-146.166c0-34.784 28.372-63.083 63.246-63.083h394.32c7.959 0 14.435 6.438 14.435 14.352 0 7.929-6.476 14.38-14.435 14.38h-394.32c-18.971 0-34.406 15.41-34.406 34.352s15.435 34.352 34.406 34.352h352.454c5.522 0 10-4.477 10-10s-4.478-10-10-10h-352.454c-7.943 0-14.406-6.438-14.406-14.352s6.462-14.352 14.406-14.352h354.976c21.416 0 38.84 17.362 38.84 38.703 0 21.356-17.424 38.731-38.84 38.731h-9.468-345.508c-34.874 0-63.246-28.299-63.246-63.083zm14.938 170.518c0-21.356 17.411-38.731 38.812-38.731h152.567c-4.558 8.201-7.648 16.858-9.192 25.826-21.307-9.049-45.788-8.103-69.872 2.906h-70.98c-5.523 0-10 4.477-10 10s4.477 10 10 10h60.882c4.452 11.046 10.341 20.679 17.464 28.731h-80.869c-21.401-.001-38.812-17.376-38.812-38.732zm251.01 38.731c5.154-9.416 8.358-19.344 9.525-29.541 17.002-10.158 37.853-10.827 58.767-1.97-6.68 14.185-16.338 24.95-28.304 31.511zm78.799-48.731c-24.096-11.013-48.587-11.955-69.898-2.895-1.543-8.972-4.634-17.633-9.194-25.837h143.099c7.943 0 14.406 6.451 14.406 14.38 0 7.914-6.463 14.352-14.406 14.352zm-88.922 5.985c1.141 14.91-3.603 29.602-13.721 42.747h-12.238c-10.117-13.145-14.861-27.837-13.721-42.747 1.134-14.83 7.953-28.932 19.84-41.204 11.888 12.272 18.706 26.374 19.84 41.204zm-89.786 42.746c-11.977-6.576-21.628-17.34-28.288-31.508 20.908-8.856 41.748-8.193 58.746 1.949 1.166 10.203 4.37 20.137 9.527 29.558h-39.985zm171.322 0c7.121-8.049 13.015-17.682 17.48-28.731h53.913c18.972 0 34.406-15.41 34.406-34.352 0-18.957-15.435-34.38-34.406-34.38h-158.016c-2.567-2.674-5.316-5.273-8.254-7.784-3.742-3.197-9.253-3.197-12.995 0-2.938 2.511-5.687 5.109-8.254 7.784h-206.829c-7.943 0-14.406-6.438-14.406-14.352s6.462-14.352 14.406-14.352h394.348c34.874 0 63.246 28.299 63.246 63.083s-28.372 63.083-63.246 63.083h-71.393z"/><path d="m255.986 399.845c-5.523 0-10 4.477-10 10s4.477 10 10 10h.057c5.523 0 9.971-4.477 9.971-10s-4.505-10-10.028-10z"/></g></g></svg>